<svg xmlns="http://www.w3.org/2000/svg" viewBox="0 0 188 283" role="img" aria-labelledby="title">
  <title>Kronängs IF logo</title>
  <defs>
    <clipPath id="shieldClip">
      <path d="M94 10c18 16 39 24 63 25-2 59-18 159-63 228C49 194 33 94 31 35c24-1 45-9 63-25Z"/>
    </clipPath>
  </defs>

  <path d="M94 10c18 16 39 24 63 25-2 59-18 159-63 228C49 194 33 94 31 35c24-1 45-9 63-25Z" fill="#231f20"/>
  <path d="M94 18c16 14 34 21 54 22-2 53-16 142-54 204C56 182 42 93 40 40c20-1 38-8 54-22Z" fill="#fff"/>

  <g clip-path="url(#shieldClip)">
    <path d="M18 157 172 34l44 54L62 211Z" fill="#231f20"/>
    <path d="M28 149 168 37l7 9L35 159Z" fill="#4b4347" opacity=".85"/>
    <path d="M66 15c-10 20-28 41-49 57l7 78L129 57l-33-42Z" fill="#fff"/>
  </g>

  <path d="m61 70 7 20h21L72 102l7 20-18-13-18 13 7-20-17-12h21Z" fill="#231f20"/>

  <g transform="translate(49 170) rotate(-38)">
    <text x="0" y="0" font-family="Arial Black, Impact, sans-serif" font-size="55" font-weight="900" fill="#ffffff" stroke="#231f20" stroke-width="8" paint-order="stroke fill" letter-spacing="2">KIF</text>
  </g>
</svg>
