<svg xmlns="http://www.w3.org/2000/svg" viewBox="0 0 188 283" role="img" aria-labelledby="title">
  <title>Kronängs IF logo</title>
  <rect width="188" height="283" fill="#231f20"/>
  <path d="M49 18c15 17 33 26 45 28 13-2 30-11 46-28 11 22 25 39 39 49-16 62-47 115-85 166C54 182 25 129 9 67c17-11 30-28 40-49Z" fill="#fff"/>
  <path d="M19 116 157 49l14 24-138 67Z" fill="#231f20"/>
  <path d="m40 61 7 21h23L51 94l8 22-19-14-18 14 7-22-18-12h23Z" fill="#231f20"/>
  <g transform="translate(44 134) rotate(-27)">
    <text x="0" y="0" font-family="Arial Black, Impact, sans-serif" font-size="52" font-weight="900" fill="#fff" stroke="#231f20" stroke-width="6" paint-order="stroke" letter-spacing="2">KIF</text>
  </g>
</svg>
